<svg width="100" height="100" viewBox="0 0 228.66 39.08" fill="none" xmlns="http://www.w3.org/2000/svg">
<g clip-path="url(#clip0_2_2681)">
<path fill-rule="evenodd" clip-rule="evenodd" d="M56.4434 81.17C54.3537 81.5999 52.1895 81.8257 49.9726 81.8257C46.9587 81.8257 44.0424 81.4084 41.2781 80.6283C44.3155 80.7425 47.5024 80.1248 50.6665 78.8568C51.9114 79.0065 53.1502 79.0882 54.3764 79.1029C55.0986 80.0175 55.7923 80.7155 56.4434 81.17ZM53.6072 78.0628C53.265 78.0507 52.9218 78.0332 52.5778 78.0104C52.825 77.8905 53.0718 77.7667 53.3181 77.639C53.4149 77.7837 53.5112 77.925 53.6072 78.0628ZM55.7023 79.0927C55.7544 79.1518 55.8063 79.2094 55.8579 79.2656C56.4507 79.9118 56.9683 80.3282 57.397 80.5548C57.8192 80.778 58.0817 80.7813 58.2409 80.7387C58.4001 80.696 58.6257 80.5619 58.8798 80.1575C59.0844 79.8319 59.2777 79.3748 59.4439 78.7726C58.2177 78.9507 56.968 79.0577 55.7023 79.0927ZM59.6815 77.699C58.1203 77.9477 56.5165 78.0769 54.8862 78.083C54.6695 77.7933 54.449 77.4822 54.2253 77.1502C56.1994 76.046 58.1383 74.6941 59.9988 73.1151C60.0062 74.9254 59.8981 76.467 59.6815 77.699ZM60.5472 78.592C60.4021 79.2204 60.2238 79.7643 60.0118 80.2164C63.058 79.209 65.9011 77.7555 68.4638 75.9334C66.023 77.1895 63.3539 78.0804 60.5472 78.592ZM67.9189 75.0531C65.704 76.1846 63.291 77.0079 60.7521 77.5083C60.9266 76.3653 61.0169 75.018 61.0244 73.4971C63.5695 74.4825 65.9079 75.0186 67.9189 75.0531ZM73.4098 71.2181C72.3755 72.1854 71.2537 73.0549 70.0583 73.8237C69.3863 73.9812 68.6266 74.05 67.7783 74.0237C65.8586 73.9641 63.5662 73.416 61.0158 72.3911L61.0123 72.2252C64.2824 69.2566 67.2763 65.575 69.7458 61.2978C70.2888 60.3572 70.7942 59.4091 71.2623 58.4564C71.5568 59.0621 71.8289 59.6589 72.078 60.2452C73.3044 63.1317 73.9514 65.7139 74.004 67.8368C74.0375 69.1893 73.8306 70.3152 73.4098 71.2181ZM81.6262 54.2255C81.8196 52.8042 81.9195 51.3532 81.9195 49.8788C81.9195 45.4424 81.0152 41.2172 79.3808 37.3775C79.0562 38.1229 78.4897 38.9623 77.7068 39.8754C80.2397 44.4454 81.6 49.3874 81.6262 54.2255ZM76.9811 40.6779C81.5349 49.1149 81.9447 58.7612 77.2943 66.4357C76.5929 67.5933 75.7984 68.6695 74.922 69.6623C75.4093 66.4591 74.2802 62.1061 71.8212 57.2777C74.1798 52.1208 75.4537 46.8634 75.6804 41.9621C76.1523 41.5223 76.5866 41.0936 76.9811 40.6779ZM77.1622 38.9288C77.3304 38.7237 77.4855 38.5238 77.6274 38.3294C78.1444 37.621 78.4508 37.0317 78.5887 36.5668C78.7245 36.1089 78.6761 35.8509 78.603 35.7032C78.5298 35.5555 78.354 35.3607 77.9075 35.1911C77.4542 35.019 76.7997 34.9054 75.923 34.8872C75.7029 34.8826 75.4725 34.8841 75.2319 34.8916C75.3202 35.3696 75.3965 35.8544 75.4608 36.3456C76.071 37.189 76.6385 38.0513 77.1622 38.9288ZM75.6598 38.4443C75.9359 38.8721 76.2008 39.304 76.4546 39.7395C76.2252 39.9881 75.9792 40.243 75.717 40.5039C75.7196 39.8086 75.7005 39.1216 75.6598 38.4443ZM73.1778 35.0692C73.6299 35.6122 74.0624 36.1649 74.4751 36.7261C74.52 37.0956 74.558 37.469 74.5891 37.8463C74.6866 39.031 74.7147 40.2502 74.6725 41.4959C74.0227 42.0875 73.2996 42.704 72.5065 43.3411C70.6397 44.8409 68.4134 46.4328 65.898 48.0593C63.9689 45.5566 61.7678 43.0389 59.3275 40.5833C58.9355 40.1889 58.5419 39.8006 58.147 39.4187C62.0892 37.8745 65.7217 36.6922 68.8328 35.9219C70.4461 35.5224 71.9024 35.238 73.1778 35.0692ZM72.3833 34.1472C68.4535 34.7554 63.2104 36.3082 57.3291 38.6384C55.7922 37.192 54.2386 35.8416 52.6871 34.5953C50.8737 29.8575 48.9773 25.8684 47.1842 22.9867C47.4834 22.8329 47.7831 22.685 48.0832 22.5432C48.531 22.3316 48.979 22.1336 49.4269 21.9493C54.2476 22.5675 59.1714 24.241 63.8064 27.0496C67.1266 29.0615 69.9992 31.4745 72.3833 34.1472ZM73.5979 33.9847C71.0548 31.0225 67.9485 28.3602 64.3379 26.1723C60.1832 23.6547 55.7806 22.0196 51.4074 21.224C56.6372 19.5453 61.7444 19.7891 65.944 22.2137C70.0485 24.5835 72.7823 28.7454 73.9881 33.9446C73.8598 33.9567 73.7298 33.9701 73.5979 33.9847ZM49.2792 20.9025C52.4483 19.6331 55.6401 19.0162 58.6816 19.1335C55.913 18.3508 52.9917 17.932 49.9726 17.932C47.7544 17.932 45.5889 18.158 43.4981 18.5884C44.1498 19.0426 44.8442 19.7408 45.5671 20.6561C46.7941 20.6709 48.0336 20.7526 49.2792 20.9025ZM47.3673 21.7488C47.0228 21.7259 46.6791 21.7084 46.3364 21.6963C46.4326 21.8342 46.5291 21.9757 46.6259 22.1206C46.8727 21.9927 47.1198 21.8688 47.3673 21.7488ZM44.2411 20.6664C44.1895 20.6079 44.1381 20.5508 44.087 20.4951C43.4941 19.8489 42.9765 19.4325 42.5479 19.2059C42.1256 18.9827 41.8632 18.9794 41.704 19.0221C41.5448 19.0647 41.3191 19.1988 41.065 19.6033C40.8607 19.9286 40.6675 20.385 40.5014 20.9864C41.727 20.8084 42.976 20.7014 44.2411 20.6664ZM40.2637 22.06C41.8243 21.8114 43.4276 21.6823 45.0574 21.6761C45.2743 21.9659 45.4948 22.2771 45.7186 22.6093C43.745 23.7131 41.8063 25.0645 39.9461 26.6429C39.9387 24.8329 40.047 23.2916 40.2637 22.06ZM39.3981 21.1669C39.5434 20.5377 39.7222 19.9932 39.9347 19.5408C36.8859 20.549 34.0405 22.0039 31.476 23.8281C33.9183 22.5706 36.5893 21.6789 39.3981 21.1669ZM32.0232 24.7072C34.239 23.575 36.653 22.7512 39.193 22.2507C39.0184 23.394 38.928 24.7417 38.9205 26.2633C36.3743 25.2774 34.0349 24.7413 32.0232 24.7072ZM26.5359 28.5398C27.569 27.5738 28.6893 26.7054 29.8831 25.9373C30.5559 25.7793 31.3166 25.7103 32.1663 25.7366C34.0861 25.7962 36.3785 26.3444 38.929 27.3693L38.9325 27.5326C35.6609 30.5017 32.6657 34.1845 30.1953 38.4633C29.6531 39.4026 29.1483 40.3494 28.6808 41.3008C28.3868 40.6961 28.1152 40.1004 27.8666 39.5152C26.6402 36.6287 25.9932 34.0464 25.9406 31.9235C25.9071 30.5698 26.1143 29.4432 26.5359 28.5398ZM18.3182 45.5373C18.1253 46.957 18.0257 48.4063 18.0257 49.8788C18.0257 54.3163 18.9305 58.5425 20.5656 62.383C20.8898 61.6377 21.4559 60.7984 22.2386 59.8854C19.7057 55.3161 18.3452 50.3748 18.3182 45.5373ZM22.9641 59.0828C18.4096 50.6454 17.9994 40.9983 22.6502 33.3234C23.3517 32.1657 24.1463 31.0892 25.0229 30.0964C24.535 33.299 25.6634 37.6515 28.1217 42.4795C25.7615 47.6388 24.487 52.8988 24.2606 57.8023C23.7903 58.2408 23.3575 58.6682 22.9641 59.0828ZM22.7833 60.832C22.6157 61.0364 22.4612 61.2355 22.3198 61.4292C21.8028 62.1376 21.4964 62.7269 21.3585 63.1918C21.2227 63.6497 21.2711 63.9077 21.3442 64.0554C21.4174 64.2031 21.5932 64.3979 22.0397 64.5675C22.493 64.7397 23.1475 64.8532 24.0242 64.8714C24.2423 64.876 24.4706 64.8746 24.7088 64.8673C24.6202 64.3874 24.5437 63.9006 24.4793 63.4075C23.8712 62.5665 23.3054 61.7068 22.7833 60.832ZM24.2808 61.3089C24.0065 60.8836 23.7431 60.4541 23.4907 60.0212C23.7189 59.7738 23.9635 59.5202 24.2241 59.2607C24.2216 59.9522 24.2406 60.6353 24.2808 61.3089ZM26.7665 64.6898C26.313 64.145 25.8791 63.5904 25.4651 63.0272C25.4206 62.6603 25.3829 62.2894 25.3521 61.9147C25.2547 60.7311 25.2265 59.5129 25.2686 58.2683C25.9199 57.675 26.6451 57.0566 27.4407 56.4175C29.3069 54.9182 31.5322 53.3269 34.0466 51.701C35.9757 54.2037 38.1768 56.7214 40.6171 59.177C41.0089 59.5713 41.4024 59.9594 41.7971 60.3412C37.8561 61.8847 34.2247 63.0666 31.1144 63.8368C29.4999 64.2365 28.0426 64.5211 26.7665 64.6898ZM26.3464 65.7742C26.2133 65.789 26.082 65.8024 25.9527 65.8146C27.1582 71.0147 29.8922 75.1773 33.9971 77.5473C38.1982 79.9728 43.3073 80.216 48.5389 78.5354C44.1651 77.7399 39.7619 76.1047 35.6065 73.5868C31.9959 71.3989 28.8895 68.7365 26.3464 65.7742ZM50.5187 77.8099C45.6976 77.1919 40.7734 75.5184 36.1381 72.7095C32.8178 70.6975 29.9452 68.2846 27.5611 65.6118C31.4905 65.0041 36.7336 63.4515 42.6149 61.1214C44.1521 62.5681 45.7059 63.9186 47.2576 65.1651C49.0708 69.9024 50.9669 73.8912 52.7599 76.7728C52.4597 76.9272 52.159 77.0756 51.8579 77.2179C51.4117 77.4288 50.9651 77.6262 50.5187 77.8099ZM24.9174 65.8861C25.4875 68.4166 26.4073 70.7354 27.6691 72.7515C25.5361 70.6712 23.6929 68.2951 22.206 65.6894C22.9314 65.867 23.8433 65.9305 24.9174 65.8861ZM33.4244 50.8819C30.2275 52.9525 27.4878 54.9721 25.3478 56.8264C25.6697 52.5874 26.7852 48.0867 28.7295 43.633C30.0056 45.9773 31.5811 48.4182 33.4244 50.8819ZM34.2903 50.327C32.272 47.6354 30.5831 44.9778 29.2636 42.4554C29.8127 41.2887 30.4192 40.1271 31.0836 38.9762C33.3416 35.0653 36.0416 31.6727 38.9812 28.8864C39.2092 33.6176 40.0729 39.5649 41.5426 46.0687C38.9497 47.483 36.5174 48.9144 34.2903 50.327ZM51.8282 35.2217C47.7671 31.9847 43.7413 29.4858 40.0998 27.8653C40.0568 27.9031 40.0139 27.941 39.971 27.979C39.9781 28.1975 39.9867 28.4193 39.9967 28.6444C40.2038 33.2672 41.0391 39.1246 42.48 45.562C43.8618 44.8216 45.2864 44.087 46.7473 43.3636C49.0728 42.2122 51.3648 41.151 53.5909 40.1882C53.0169 38.4579 52.427 36.798 51.8282 35.2217ZM46.2778 23.4719C44.4679 24.4792 42.6836 25.7038 40.962 27.1297C44.1569 28.6001 47.607 30.7061 51.0996 33.3556C50.0703 30.7917 49.0234 28.4853 47.9936 26.5016C47.4094 25.3762 46.8351 24.3635 46.2778 23.4719ZM66.5202 48.8784C69.7151 46.8093 72.4535 44.791 74.5931 42.9377C74.2711 47.1745 73.1562 51.6728 71.2133 56.1241C69.9375 53.7808 68.3627 51.341 66.5202 48.8784ZM65.6543 49.4333C67.6718 52.1238 69.3601 54.7803 70.6793 57.3018C70.1298 58.4698 69.5227 59.6327 68.8575 60.7849C66.6005 64.6942 63.9017 68.0857 60.9635 70.8713C60.7352 66.1404 59.8716 60.194 58.4021 53.6912C60.9949 52.2771 63.4272 50.8458 65.6543 49.4333ZM48.8451 66.4048C52.337 69.0538 55.7866 71.1595 58.981 72.6298C57.2597 74.0557 55.4758 75.2803 53.6662 76.2876C53.1091 75.3963 52.5352 74.3841 51.9512 73.2591C50.9214 71.2754 49.8745 68.9689 48.8451 66.4048ZM48.1165 64.5387C52.177 67.7752 56.202 70.2737 59.8431 71.8942C59.8867 71.8559 59.9302 71.8175 59.9738 71.7789C59.9667 71.5613 59.9581 71.3404 59.9481 71.1163C59.741 66.4934 58.9057 60.6357 57.4647 54.198C56.0837 54.938 54.6599 55.672 53.1999 56.395C50.8735 57.5469 48.5806 58.6085 46.3536 59.5716C46.9277 61.3021 47.5176 62.9622 48.1165 64.5387ZM72.2603 26.9908C73.5278 29.0107 74.4513 31.3353 75.0233 33.8728C76.0993 33.8279 77.0129 33.8912 77.7394 34.0688C76.2488 31.4565 74.4001 29.0749 72.2603 26.9908ZM58.1633 52.6528C60.6154 51.3089 62.9173 49.9522 65.0306 48.6142C63.1437 46.1727 60.9903 43.7117 58.5999 41.3063C58.1021 40.8054 57.6018 40.3147 57.0996 39.8345C56.362 40.1313 55.6144 40.4403 54.8582 40.7612C55.606 43.069 56.3236 45.4914 56.9954 47.9986C57.4171 49.5727 57.8066 51.1268 58.1633 52.6528ZM53.9115 41.1671C51.7304 42.1123 49.4837 43.1533 47.2025 44.2828C45.6629 45.0452 44.165 45.8194 42.7163 46.5994C43.0876 48.2019 43.4957 49.8377 43.9403 51.4967C44.5992 53.9558 45.3018 56.3306 46.0331 58.5926C48.215 57.6472 50.4626 56.6058 52.7447 55.4758C54.2834 54.7139 55.7805 53.9401 57.2284 53.1606C56.8571 51.5583 56.4491 49.9228 56.0046 48.2641C55.3456 45.8046 54.6428 43.4295 53.9115 41.1671ZM54.5372 39.7832C55.1228 39.5351 55.7035 39.2941 56.2786 39.0602C55.323 38.1714 54.3622 37.321 53.4009 36.5109C53.7852 37.5704 54.1646 38.6624 54.5372 39.7832ZM41.7813 47.1072C39.3292 48.4512 37.0272 49.808 34.9139 51.1461C36.8008 53.5876 38.9543 56.0486 41.3447 58.454C41.8424 58.9548 42.3425 59.4453 42.8445 59.9254C43.5823 59.6285 44.33 59.3195 45.0863 58.9986C44.3386 56.6911 43.6212 54.269 42.9495 51.7622C42.5276 50.1878 42.1381 48.6334 41.7813 47.1072ZM45.4073 59.9766C44.8215 60.2247 44.2407 60.4658 43.6655 60.6997C44.6213 61.5887 45.5823 62.4393 46.5439 63.2495C46.1594 62.1898 45.78 61.0976 45.4073 59.9766ZM73.2822 73.1995C79.2523 67.2322 82.9452 58.9868 82.9452 49.8788C82.9452 31.6686 68.1828 16.9062 49.9726 16.9062C31.7623 16.9062 17 31.6686 17 49.8788C17 68.0891 31.7623 82.8514 49.9726 82.8514C59.0055 82.8514 67.19 79.2192 73.1453 73.3356C73.1685 73.3133 73.1915 73.2908 73.2144 73.2681C73.2372 73.2454 73.2598 73.2226 73.2822 73.1995Z" fill="white"/>
<path d="M95 49.9062C95 74.7591 74.8528 94.9062 50 94.9062C25.1472 94.9062 5 74.7591 5 49.9062C5 25.0534 25.1472 4.90625 50 4.90625C74.8528 4.90625 95 25.0534 95 49.9062ZM14 49.9062C14 69.7885 30.1177 85.9062 50 85.9062C69.8822 85.9062 86 69.7885 86 49.9062C86 30.024 69.8822 13.9062 50 13.9062C30.1177 13.9062 14 30.024 14 49.9062Z" fill="white"/>
<path d="M97 86.922V73.4382C97 73.25 96.9077 73.0695 96.7435 72.9364C96.5792 72.8033 96.3565 72.7285 96.1242 72.7285H3.87578C3.64351 72.7285 3.42075 72.8033 3.25651 72.9364C3.09227 73.0695 3 73.25 3 73.4382V86.922H11.7578H88.972H97Z" fill="white"/>
<path d="M97 86.922H88.972V88.9754C88.9717 89.096 89.0094 89.2147 89.0814 89.3202C89.1534 89.4257 89.2575 89.5147 89.3837 89.5786C89.5099 89.6425 89.6541 89.6793 89.8027 89.6855C89.9514 89.6917 90.0995 89.6671 90.2332 89.6141L97 86.922Z" fill="white"/>
<path d="M11.7578 86.922H3L10.5229 89.6661C10.6564 89.7147 10.8027 89.7355 10.9486 89.7265C11.0945 89.7174 11.2353 89.6789 11.3581 89.6145C11.4809 89.55 11.5818 89.4616 11.6517 89.3574C11.7215 89.2532 11.7579 89.1365 11.7578 89.018V86.922Z" fill="white"/>
<path d="M97 86.922V73.4382C97 73.25 96.9077 73.0695 96.7435 72.9364C96.5792 72.8033 96.3565 72.7285 96.1242 72.7285H3.87578C3.64351 72.7285 3.42075 72.8033 3.25651 72.9364C3.09227 73.0695 3 73.25 3 73.4382V86.922M97 86.922H3M97 86.922L90.2332 89.6141C90.0995 89.6671 89.9514 89.6917 89.8027 89.6855C89.6541 89.6793 89.5099 89.6425 89.3837 89.5786C89.2575 89.5147 89.1534 89.4257 89.0814 89.3202C89.0094 89.2147 88.9717 89.096 88.972 88.9754V86.922M97 86.922H88.972M3 86.922H11.7578M3 86.922L10.5229 89.6661C10.6564 89.7147 10.8027 89.7355 10.9486 89.7265C11.0945 89.7174 11.2353 89.6789 11.3581 89.6145C11.4809 89.55 11.5818 89.4616 11.6517 89.3574C11.7215 89.2532 11.7579 89.1365 11.7578 89.018V86.922M88.972 86.922H11.7578" stroke="#239766" stroke-width="0.583789"/>
<path d="M13.3437 33.5347L13.6191 32.9007L14.8357 33.4292C14.8878 33.6453 14.9001 33.8747 14.8728 34.1174C14.8454 34.3601 14.7846 34.59 14.6903 34.807C14.5551 35.1183 14.3679 35.3696 14.1286 35.561C13.8864 35.7512 13.6172 35.8668 13.321 35.9078C13.0232 35.9448 12.7258 35.8988 12.4288 35.7698C12.1318 35.6407 11.8966 35.4554 11.7233 35.2138C11.5483 34.968 11.4497 34.6909 11.4275 34.3826C11.4024 34.073 11.4581 33.7611 11.5946 33.447C11.7087 33.1842 11.8565 32.965 12.0381 32.7893C12.2197 32.6136 12.4263 32.4895 12.6581 32.417L12.8758 33.0412C12.5572 33.1573 12.3321 33.3668 12.2006 33.6695C12.1175 33.8608 12.0837 34.0481 12.0991 34.2313C12.1146 34.4146 12.1771 34.5792 12.2868 34.7253C12.3965 34.8714 12.5455 34.9854 12.734 35.0672C12.9196 35.1479 13.1032 35.1784 13.2849 35.1589C13.4665 35.1393 13.6303 35.0747 13.7764 34.965C13.9209 34.8513 14.0341 34.7002 14.1159 34.5117C14.2028 34.3118 14.2381 34.1133 14.2219 33.9161L13.3437 33.5347Z" fill="#239766"/>
<path d="M13.4876 29.7614L13.8735 29.1107L16.1548 30.4636L16.9908 29.0538L17.521 29.3682L16.2991 31.4287L13.4876 29.7614Z" fill="#239766"/>
<path d="M19.7255 26.4409C19.5148 26.707 19.2671 26.902 18.9823 27.026C18.6994 27.1476 18.4096 27.1901 18.1128 27.1537C17.8155 27.1129 17.5411 26.9929 17.2897 26.7939C17.0382 26.5948 16.8598 26.3562 16.7543 26.0781C16.6484 25.7957 16.6221 25.5028 16.6755 25.1996C16.7308 24.894 16.8638 24.6081 17.0745 24.342C17.2852 24.076 17.5319 23.8821 17.8148 23.7606C18.0977 23.6391 18.3887 23.5975 18.688 23.6358C18.9848 23.6723 19.2589 23.79 19.5103 23.9891C19.7618 24.1881 19.9405 24.4289 20.0464 24.7114C20.15 24.9919 20.175 25.2838 20.1216 25.587C20.0682 25.8902 19.9362 26.1749 19.7255 26.4409ZM19.2202 26.0409C19.34 25.8895 19.4141 25.7258 19.4424 25.5496C19.4682 25.3715 19.446 25.199 19.3756 25.0321C19.3071 24.8627 19.1936 24.7152 19.0349 24.5896C18.8762 24.464 18.7066 24.3873 18.5261 24.3595C18.3475 24.3293 18.1757 24.3481 18.0107 24.4161C17.8433 24.4821 17.6996 24.5907 17.5798 24.7421C17.46 24.8934 17.3871 25.0582 17.3613 25.2363C17.333 25.4124 17.3531 25.5852 17.4215 25.7546C17.4919 25.9215 17.6064 26.0677 17.7651 26.1934C17.9238 26.319 18.0924 26.3969 18.271 26.4271C18.4516 26.4549 18.6256 26.4358 18.793 26.3698C18.958 26.3019 19.1004 26.1922 19.2202 26.0409Z" fill="#239766"/>
<path d="M22.9137 20.4303C23.0908 20.3446 23.2664 20.3163 23.4404 20.3456C23.6122 20.3725 23.7679 20.4599 23.9075 20.6076C24.1052 20.8167 24.1759 21.0554 24.1197 21.3238C24.0636 21.5877 23.8798 21.8668 23.5684 22.1611L22.3343 23.3276L20.0785 20.9411L21.2445 19.839C21.5354 19.564 21.8108 19.4092 22.0706 19.3745C22.3327 19.3376 22.554 19.4146 22.7345 19.6055C22.844 19.7215 22.9134 19.8517 22.9425 19.9964C22.9739 20.1388 22.9642 20.2835 22.9137 20.4303ZM21.0205 20.8382L21.5523 21.4008L22.1012 20.8819C22.2375 20.753 22.3184 20.6314 22.3437 20.5171C22.3691 20.4028 22.3377 20.299 22.2496 20.2058C22.1615 20.1126 22.0608 20.0766 21.9474 20.0977C21.8318 20.1166 21.7058 20.1905 21.5694 20.3194L21.0205 20.8382ZM23.1344 21.7838C23.2798 21.6463 23.3664 21.5193 23.394 21.4029C23.4239 21.2842 23.3916 21.1749 23.297 21.0749C23.1101 20.8772 22.8701 20.9169 22.5769 21.194L21.9325 21.8031L22.49 22.3929L23.1344 21.7838Z" fill="#239766"/>
<path d="M27.6456 18.0245L26.4161 18.9049L26.5879 19.6402L25.9599 20.0899L25.244 16.5967L25.8493 16.1633L28.9295 17.9635L28.2864 18.424L27.6456 18.0245ZM27.1194 17.6973L25.9736 16.9842L26.2796 18.2987L27.1194 17.6973Z" fill="#239766"/>
<path d="M29.1438 14.0028L29.8088 13.6419L31.0742 15.9734L32.5149 15.1914L32.809 15.7333L30.7033 16.8761L29.1438 14.0028Z" fill="#239766"/>
<path d="M44.7415 12.1466C44.4854 12.1813 44.2325 12.1811 43.9826 12.1458C43.7354 12.107 43.5318 12.042 43.3717 11.9505L43.5497 11.3514C43.7024 11.4344 43.8785 11.4938 44.0782 11.5296C44.2778 11.5654 44.4733 11.5703 44.6646 11.5443C44.8775 11.5155 45.0306 11.4633 45.1241 11.3878C45.2171 11.3092 45.2565 11.2175 45.2423 11.1126C45.2319 11.0354 45.1924 10.9764 45.124 10.9354C45.0583 10.8909 44.9755 10.8597 44.8757 10.8418C44.7789 10.8235 44.6479 10.8067 44.4824 10.7914C44.2276 10.7662 44.0176 10.735 43.8523 10.6977C43.687 10.6604 43.5385 10.5847 43.4068 10.4706C43.2781 10.3561 43.1992 10.1908 43.1699 9.97487C43.1444 9.78667 43.1723 9.61007 43.2536 9.44509C43.3345 9.27702 43.4707 9.13445 43.6622 9.01737C43.8568 8.89987 44.1022 8.82105 44.3984 8.7809C44.6051 8.75287 44.8105 8.75016 45.0147 8.77276C45.2188 8.79536 45.4012 8.8429 45.5619 8.91538L45.4076 9.51599C45.0854 9.38687 44.7746 9.34259 44.4753 9.38316C44.2655 9.4116 44.1143 9.46666 44.0217 9.54834C43.9321 9.6296 43.8949 9.72577 43.91 9.83684C43.925 9.94791 43.9934 10.0235 44.1151 10.0635C44.2394 10.1001 44.424 10.1285 44.6686 10.1487C44.9234 10.1739 45.1334 10.2051 45.2987 10.2424C45.464 10.2797 45.6108 10.3541 45.739 10.4655C45.8703 10.5765 45.9506 10.74 45.9799 10.956C46.005 11.1411 45.9755 11.3179 45.8915 11.4864C45.8102 11.6514 45.6723 11.7926 45.4777 11.9101C45.2831 12.0276 45.0377 12.1065 44.7415 12.1466Z" fill="#239766"/>
<path d="M50.8774 11.1203L50.8835 11.7274L48.3522 11.7527L48.3195 8.4835L50.7901 8.45879L50.7962 9.06593L49.0775 9.08312L49.0846 9.79301L50.6024 9.77783L50.6083 10.3663L49.0905 10.3815L49.098 11.1381L50.8774 11.1203Z" fill="#239766"/>
<path d="M54.7522 12.091C54.4154 12.049 54.1201 11.9385 53.8663 11.7594C53.6156 11.5807 53.4288 11.3551 53.3059 11.0825C53.1864 10.8072 53.1465 10.5104 53.1862 10.1922C53.2258 9.87394 53.3371 9.59757 53.52 9.36308C53.7065 9.12588 53.9431 8.95141 54.23 8.83968C54.52 8.72833 54.8334 8.69363 55.1701 8.73558C55.5069 8.77752 55.8007 8.88784 56.0514 9.06654C56.3021 9.24524 56.4887 9.47243 56.6113 9.74811C56.7342 10.0207 56.7758 10.3161 56.7362 10.6344C56.6966 10.9526 56.5835 11.2303 56.3971 11.4675C56.2111 11.7016 55.9746 11.8745 55.6877 11.9863C55.4008 12.098 55.089 12.1329 54.7522 12.091ZM54.8319 11.4514C55.0234 11.4753 55.2018 11.4535 55.3671 11.3863C55.5327 11.3159 55.6686 11.2073 55.7748 11.0605C55.884 10.9141 55.9511 10.7405 55.9761 10.5397C56.0011 10.3389 55.9787 10.1541 55.9087 9.98534C55.8418 9.81699 55.7365 9.67994 55.5928 9.57419C55.4495 9.46535 55.282 9.399 55.0905 9.37514C54.8989 9.35128 54.7203 9.37453 54.5547 9.44488C54.3894 9.51215 54.2522 9.61899 54.143 9.76541C54.0368 9.9122 53.9712 10.086 53.9462 10.2868C53.9212 10.4877 53.9421 10.6723 54.009 10.8406C54.079 11.0093 54.1856 11.1481 54.329 11.257C54.4727 11.3627 54.6403 11.4275 54.8319 11.4514Z" fill="#239766"/>
<path d="M69.7013 16.3204L68.3734 15.5852L67.7808 16.0579L67.1025 15.6824L69.9608 13.528L70.6145 13.8899L70.31 17.4581L69.6154 17.0736L69.7013 16.3204ZM69.7712 15.7025L69.9239 14.3564L68.8641 15.2003L69.7712 15.7025Z" fill="#239766"/>
<path d="M74.7589 18.5483L75.3118 18.9631L74.516 20.0242C74.2937 20.0248 74.0677 19.9837 73.8379 19.9009C73.6081 19.818 73.3986 19.7056 73.2093 19.5637C72.9378 19.36 72.7366 19.1197 72.6059 18.8426C72.477 18.563 72.4268 18.2743 72.4555 17.9767C72.4885 17.6784 72.6021 17.3998 72.7964 17.1407C72.9907 16.8817 73.2254 16.6958 73.5007 16.5831C73.7803 16.4697 74.0726 16.438 74.3778 16.4878C74.6848 16.5351 74.9753 16.6615 75.2492 16.867C75.4784 17.0389 75.6574 17.2335 75.7863 17.4508C75.9152 17.6681 75.9881 17.8979 76.0049 18.1402L75.3473 18.2074C75.3081 17.8705 75.1565 17.6031 74.8924 17.405C74.7256 17.2799 74.5512 17.2036 74.3694 17.1762C74.1875 17.1488 74.0129 17.1715 73.8454 17.2444C73.6778 17.3172 73.5324 17.4359 73.4091 17.6003C73.2877 17.7622 73.2155 17.9337 73.1924 18.1149C73.1694 18.2961 73.1943 18.4705 73.2672 18.638C73.3444 18.8049 73.4652 18.95 73.6296 19.0733C73.8039 19.2041 73.9889 19.2844 74.1844 19.3143L74.7589 18.5483Z" fill="#239766"/>
<path d="M78.3352 23.2511L77.9102 23.6822L76.113 21.9102L78.4014 19.5891L80.1556 21.3185L79.7306 21.7496L78.5103 20.5465L78.0134 21.0505L79.0911 22.113L78.6791 22.5308L77.6015 21.4683L77.0719 22.0055L78.3352 23.2511Z" fill="#239766"/>
<path d="M83.9128 25.7485L81.337 27.7617L80.9545 27.2723L81.5146 24.7658L79.9508 25.9881L79.4906 25.3993L82.0664 23.3861L82.4518 23.8792L81.8887 26.3821L83.4526 25.1598L83.9128 25.7485Z" fill="#239766"/>
<path d="M83.462 31.2102C83.2945 30.9222 83.2045 30.6251 83.1921 30.319C83.1839 30.0139 83.2511 29.7299 83.3935 29.467C83.5401 29.2052 83.7534 28.9928 84.0333 28.83C84.3131 28.6672 84.6018 28.5875 84.8992 28.591C85.2009 28.5956 85.4809 28.6776 85.7394 28.837C86.0021 28.9976 86.218 29.2232 86.3871 29.5138C86.5295 29.7587 86.6149 30.0045 86.643 30.251C86.6728 30.5003 86.6461 30.7392 86.5629 30.9677L85.9311 30.7733C86.0406 30.4538 86.0132 30.1528 85.8488 29.8702C85.747 29.6953 85.6171 29.5619 85.4593 29.4701C85.304 29.3767 85.1351 29.3308 84.9525 29.3327C84.7714 29.3372 84.5934 29.3903 84.4184 29.4921C84.2435 29.5938 84.1093 29.7223 84.0159 29.8775C83.9241 30.0354 83.879 30.2057 83.8808 30.3884C83.8853 30.5694 83.9385 30.7475 84.0402 30.9224C84.2046 31.205 84.4541 31.3768 84.7887 31.4379L84.6454 32.0832C84.4029 32.0442 84.1807 31.9501 83.9787 31.8011C83.7767 31.652 83.6045 31.4551 83.462 31.2102Z" fill="#239766"/>
<path d="M86.8219 35.3274L85.7538 35.7755L85.4611 35.0778L86.5378 34.6261L87.9861 32.6459L88.2969 33.3867L87.2954 34.7539L88.9726 34.9974L89.2599 35.6821L86.8219 35.3274Z" fill="#239766"/>
<path d="M42.0037 79.6807H44.1836V83.8638C43.6239 84.286 42.9758 84.6101 42.2393 84.8359C41.5029 85.0618 40.7615 85.1747 40.0152 85.1747C38.9449 85.1747 37.9826 84.9488 37.1283 84.4972C36.274 84.0356 35.6014 83.4023 35.1104 82.5971C34.6292 81.7821 34.3887 80.8639 34.3887 79.8427C34.3887 78.8215 34.6292 77.9083 35.1104 77.1031C35.6014 76.2881 36.2789 75.6547 37.143 75.203C38.0072 74.7415 38.9793 74.5107 40.0594 74.5107C40.9628 74.5107 41.7827 74.6629 42.5192 74.9673C43.2557 75.2718 43.8743 75.7136 44.3751 76.293L42.8432 77.707C42.1068 76.9312 41.2181 76.5434 40.1773 76.5434C39.5194 76.5434 38.9351 76.6808 38.4245 76.9558C37.9139 77.2307 37.5162 77.6186 37.2314 78.1194C36.9466 78.6202 36.8043 79.1946 36.8043 79.8427C36.8043 80.481 36.9466 81.0505 37.2314 81.5513C37.5162 82.0521 37.909 82.4449 38.4097 82.7296C38.9204 83.0046 39.4997 83.1421 40.1478 83.1421C40.8352 83.1421 41.4538 82.9948 42.0037 82.7002V79.6807Z" fill="#239766"/>
<path d="M49.7878 85.1747C48.9728 85.1747 48.1824 85.0667 47.4164 84.8507C46.6603 84.6248 46.0515 84.3351 45.59 83.9816L46.4001 82.1847C46.842 82.5087 47.3673 82.7689 47.9761 82.9653C48.585 83.1617 49.1938 83.2599 49.8026 83.2599C50.4801 83.2599 50.9809 83.1617 51.3049 82.9653C51.629 82.7591 51.791 82.4891 51.791 82.1552C51.791 81.9097 51.6928 81.7084 51.4964 81.5513C51.3099 81.3844 51.0644 81.2518 50.76 81.1536C50.4654 81.0554 50.0628 80.9474 49.5522 80.8296C48.7666 80.643 48.1234 80.4564 47.6226 80.2699C47.1219 80.0833 46.6898 79.7838 46.3265 79.3714C45.973 78.959 45.7962 78.4091 45.7962 77.7217C45.7962 77.1227 45.9582 76.5827 46.2823 76.1015C46.6063 75.6105 47.0924 75.2227 47.7405 74.9379C48.3984 74.6531 49.1987 74.5107 50.1413 74.5107C50.7992 74.5107 51.4424 74.5893 52.0709 74.7464C52.6993 74.9035 53.2492 75.1294 53.7205 75.424L52.9841 77.2356C52.0316 76.6956 51.0791 76.4255 50.1266 76.4255C49.4589 76.4255 48.963 76.5336 48.639 76.7496C48.3247 76.9656 48.1676 77.2504 48.1676 77.6039C48.1676 77.9574 48.3493 78.2225 48.7126 78.3993C49.0857 78.5662 49.6504 78.7331 50.4065 78.9C51.192 79.0866 51.8352 79.2732 52.336 79.4598C52.8368 79.6463 53.2639 79.9409 53.6174 80.3435C53.9808 80.7461 54.1624 81.2911 54.1624 81.9785C54.1624 82.5676 53.9955 83.1077 53.6616 83.5987C53.3376 84.0798 52.8466 84.4628 52.1887 84.7476C51.5308 85.0323 50.7305 85.1747 49.7878 85.1747Z" fill="#239766"/>
<path d="M62.583 82.7886H57.796L56.8828 84.9979H54.4378L59.0333 74.6875H61.39L66.0002 84.9979H63.4963L62.583 82.7886ZM61.8319 80.9769L60.1969 77.0294L58.562 80.9769H61.8319Z" fill="#239766"/>
</g>
<defs>
<clipPath id="clip0_2_2681">
<rect width="299.2441" height="299.2441" fill="white" transform="translate(0 0.728516)"/>
</clipPath>
</defs>
</svg>
