<svg width="94" height="90" xmlns="http://www.w3.org/2000/svg" fill="none">
 <defs>
  <clipPath id="clip0_2_2681">
   <rect id="svg_1" x="0" y="0.72852" fill="white" height="299.2441" width="299.2441"/>
  </clipPath>
 </defs>
 <g>
  <title>Layer 1</title>
  <g id="svg_2" clip-path="url(#clip0_2_2681)">
   <path id="svg_3" fill="white" d="m53.4434,76.26375c-2.0897,0.4299 -4.2539,0.6557 -6.4708,0.6557c-3.0139,0 -5.9302,-0.4173 -8.6945,-1.1974c3.0374,0.1142 6.2243,-0.5035 9.3884,-1.7715c1.2449,0.1497 2.4837,0.2314 3.7099,0.2461c0.7222,0.9146 1.4159,1.6126 2.067,2.0671zm-2.8362,-3.1072c-0.3422,-0.0121 -0.6854,-0.0296 -1.0294,-0.0524c0.2472,-0.1199 0.494,-0.2437 0.7403,-0.3714c0.0968,0.1447 0.1931,0.286 0.2891,0.4238zm2.0951,1.0299c0.0521,0.0591 0.104,0.1167 0.1556,0.1729c0.5928,0.6462 1.1104,1.0626 1.5391,1.2892c0.4222,0.2232 0.6847,0.2265 0.8439,0.1839c0.1592,-0.0427 0.3848,-0.1768 0.6389,-0.5812c0.2046,-0.3256 0.3979,-0.7827 0.5641,-1.3849c-1.2262,0.1781 -2.4759,0.2851 -3.7416,0.3201zm3.9792,-1.3937c-1.5612,0.2487 -3.165,0.3779 -4.7953,0.384c-0.2167,-0.2897 -0.4372,-0.6008 -0.6609,-0.9328c1.9741,-1.1042 3.913,-2.4561 5.7735,-4.0351c0.0074,1.8103 -0.1007,3.3519 -0.3173,4.5839zm0.8657,0.893c-0.1451,0.6284 -0.3234,1.1723 -0.5354,1.6244c3.0462,-1.0074 5.8893,-2.4609 8.452,-4.283c-2.4408,1.2561 -5.1099,2.147 -7.9166,2.6586zm7.3717,-3.5389c-2.2149,1.1315 -4.6279,1.9548 -7.1668,2.4552c0.1745,-1.143 0.2648,-2.4903 0.2723,-4.0112c2.5451,0.9854 4.8835,1.5215 6.8945,1.556zm5.4909,-3.835c-1.0343,0.9673 -2.1561,1.8368 -3.3515,2.6056c-0.672,0.1575 -1.4317,0.2263 -2.28,0.2c-1.9197,-0.0596 -4.2121,-0.6077 -6.7625,-1.6326l-0.0035,-0.1659c3.2701,-2.9686 6.264,-6.6502 8.7335,-10.9274c0.543,-0.9406 1.0484,-1.8887 1.5165,-2.8414c0.2945,0.6057 0.5666,1.2025 0.8157,1.7888c1.2264,2.8865 1.8734,5.4687 1.926,7.5916c0.0335,1.3525 -0.1734,2.4784 -0.5942,3.3813zm8.2164,-16.9926c0.1934,-1.4213 0.2933,-2.8723 0.2933,-4.3467c0,-4.4364 -0.9043,-8.6616 -2.5387,-12.5013c-0.3246,0.7454 -0.8911,1.5848 -1.674,2.4979c2.5329,4.57 3.8932,9.512 3.9194,14.3501zm-4.6451,-13.5476c4.5538,8.437 4.9636,18.0833 0.3132,25.7578c-0.7014,1.1576 -1.4959,2.2338 -2.3723,3.2266c0.4873,-3.2032 -0.6418,-7.5562 -3.1008,-12.3846c2.3586,-5.1569 3.6325,-10.4143 3.8592,-15.3156c0.4719,-0.4398 0.9062,-0.8685 1.3007,-1.2842zm0.1811,-1.7491c0.1682,-0.2051 0.3233,-0.405 0.4652,-0.5994c0.517,-0.7084 0.8234,-1.2977 0.9613,-1.7626c0.1358,-0.4579 0.0874,-0.7159 0.0143,-0.8636c-0.0732,-0.1477 -0.249,-0.3425 -0.6955,-0.5121c-0.4533,-0.1721 -1.1078,-0.2857 -1.9845,-0.3039c-0.2201,-0.0046 -0.4505,-0.0031 -0.6911,0.0044c0.0883,0.478 0.1646,0.9628 0.2289,1.454c0.6102,0.8434 1.1777,1.7057 1.7014,2.5832zm-1.5024,-0.4845c0.2761,0.4278 0.541,0.8597 0.7948,1.2952c-0.2294,0.2486 -0.4754,0.5035 -0.7376,0.7644c0.0026,-0.6953 -0.0165,-1.3823 -0.0572,-2.0596zm-2.482,-3.3751c0.4521,0.543 0.8846,1.0957 1.2973,1.6569c0.0449,0.3695 0.0829,0.7429 0.114,1.1202c0.0975,1.1847 0.1256,2.4039 0.0834,3.6496c-0.6498,0.5916 -1.3729,1.2081 -2.166,1.8452c-1.8668,1.4998 -4.0931,3.0917 -6.6085,4.7182c-1.9291,-2.5027 -4.1302,-5.0204 -6.5705,-7.476c-0.392,-0.3944 -0.7856,-0.7827 -1.1805,-1.1646c3.9422,-1.5442 7.5747,-2.7265 10.6858,-3.4968c1.6133,-0.3995 3.0696,-0.6839 4.345,-0.8527zm-0.7945,-0.922c-3.9298,0.6082 -9.1729,2.161 -15.0542,4.4912c-1.5369,-1.4464 -3.0905,-2.7968 -4.642,-4.0431c-1.8134,-4.7378 -3.7098,-8.7269 -5.5029,-11.6086c0.2992,-0.1538 0.5989,-0.3017 0.899,-0.4435c0.4478,-0.2116 0.8958,-0.4096 1.3437,-0.5939c4.8207,0.6182 9.7445,2.2917 14.3795,5.1003c3.3202,2.0119 6.1928,4.4249 8.5769,7.0976zm1.2146,-0.1625c-2.5431,-2.9622 -5.6494,-5.6245 -9.26,-7.8124c-4.1547,-2.5176 -8.5573,-4.1527 -12.9305,-4.9483c5.2298,-1.6787 10.337,-1.4349 14.5366,0.9897c4.1045,2.3698 6.8383,6.5317 8.0441,11.7309c-0.1283,0.0121 -0.2583,0.0255 -0.3902,0.0401zm-24.3187,-13.0822c3.1691,-1.2694 6.3609,-1.8863 9.4024,-1.769c-2.7686,-0.7827 -5.6899,-1.2015 -8.709,-1.2015c-2.2182,0 -4.3837,0.226 -6.4745,0.6564c0.6517,0.4542 1.3461,1.1524 2.069,2.0677c1.227,0.0148 2.4665,0.0965 3.7121,0.2464zm-1.9119,0.8463c-0.3445,-0.0229 -0.6882,-0.0404 -1.0309,-0.0525c0.0962,0.1379 0.1927,0.2794 0.2895,0.4243c0.2468,-0.1279 0.4939,-0.2518 0.7414,-0.3718zm-3.1262,-1.0824c-0.0516,-0.0585 -0.103,-0.1156 -0.1541,-0.1713c-0.5929,-0.6462 -1.1105,-1.0626 -1.5391,-1.2892c-0.4223,-0.2232 -0.6847,-0.2265 -0.8439,-0.1838c-0.1592,0.0426 -0.3849,0.1767 -0.639,0.5812c-0.2043,0.3253 -0.3975,0.7817 -0.5636,1.3831c1.2256,-0.178 2.4746,-0.285 3.7397,-0.32zm-3.9774,1.3936c1.5606,-0.2486 3.1639,-0.3777 4.7937,-0.3839c0.2169,0.2898 0.4374,0.601 0.6612,0.9332c-1.9736,1.1038 -3.9123,2.4552 -5.7725,4.0336c-0.0074,-1.81 0.1009,-3.3513 0.3176,-4.5829zm-0.8656,-0.8931c0.1453,-0.6292 0.3241,-1.1737 0.5366,-1.6261c-3.0488,1.0082 -5.8942,2.4631 -8.4587,4.2873c2.4423,-1.2575 5.1133,-2.1492 7.9221,-2.6612zm-7.3749,3.5403c2.2158,-1.1322 4.6298,-1.956 7.1698,-2.4565c-0.1746,1.1433 -0.265,2.491 -0.2725,4.0126c-2.5462,-0.9859 -4.8856,-1.522 -6.8973,-1.5561zm-5.4873,3.8326c1.0331,-0.966 2.1534,-1.8344 3.3472,-2.6025c0.6728,-0.158 1.4335,-0.227 2.2832,-0.2007c1.9198,0.0596 4.2122,0.6078 6.7627,1.6327l0.0035,0.1633c-3.2716,2.9691 -6.2668,6.6519 -8.7372,10.9307c-0.5422,0.9393 -1.047,1.8861 -1.5145,2.8375c-0.294,-0.6047 -0.5656,-1.2004 -0.8142,-1.7856c-1.2264,-2.8865 -1.8734,-5.4688 -1.926,-7.5917c-0.0335,-1.3537 0.1737,-2.4803 0.5953,-3.3837zm-8.2177,16.9975c-0.1929,1.4197 -0.2925,2.869 -0.2925,4.3415c0,4.4375 0.9048,8.6637 2.5399,12.5042c0.3242,-0.7453 0.8903,-1.5846 1.673,-2.4976c-2.5329,-4.5693 -3.8934,-9.5106 -3.9204,-14.3481zm4.6459,13.5455c-4.5545,-8.4374 -4.9647,-18.0845 -0.3139,-25.7594c0.7015,-1.1577 1.4961,-2.2342 2.3727,-3.227c-0.4879,3.2026 0.6405,7.5551 3.0988,12.3831c-2.3602,5.1593 -3.6347,10.4193 -3.8611,15.3228c-0.4703,0.4385 -0.9031,0.8659 -1.2965,1.2805zm-0.1808,1.7492c-0.1676,0.2044 -0.3221,0.4035 -0.4635,0.5972c-0.517,0.7084 -0.8234,1.2977 -0.9613,1.7626c-0.1358,0.4579 -0.0874,0.7159 -0.0143,0.8636c0.0732,0.1477 0.249,0.3425 0.6955,0.5121c0.4533,0.1722 1.1078,0.2857 1.9845,0.3039c0.2181,0.0046 0.4464,0.0032 0.6846,-0.0041c-0.0886,-0.4799 -0.1651,-0.9667 -0.2295,-1.4598c-0.6081,-0.841 -1.1739,-1.7007 -1.696,-2.5755zm1.4975,0.4769c-0.2743,-0.4253 -0.5377,-0.8548 -0.7901,-1.2877c0.2282,-0.2474 0.4728,-0.501 0.7334,-0.7605c-0.0025,0.6915 0.0165,1.3746 0.0567,2.0482zm2.4857,3.3809c-0.4535,-0.5448 -0.8874,-1.0994 -1.3014,-1.6626c-0.0445,-0.3669 -0.0822,-0.7378 -0.113,-1.1125c-0.0974,-1.1836 -0.1256,-2.4018 -0.0835,-3.6464c0.6513,-0.5933 1.3765,-1.2117 2.1721,-1.8508c1.8662,-1.4993 4.0915,-3.0906 6.6059,-4.7165c1.9291,2.5027 4.1302,5.0204 6.5705,7.476c0.3918,0.3943 0.7853,0.7824 1.18,1.1642c-3.941,1.5435 -7.5724,2.7254 -10.6827,3.4956c-1.6145,0.3997 -3.0718,0.6843 -4.3479,0.853zm-0.4201,1.0844c-0.1331,0.0148 -0.2644,0.0282 -0.3937,0.0404c1.2055,5.2001 3.9395,9.3627 8.0444,11.7327c4.2011,2.4255 9.3102,2.6687 14.5418,0.9881c-4.3738,-0.7955 -8.777,-2.4307 -12.9324,-4.9486c-3.6106,-2.1879 -6.717,-4.8503 -9.2601,-7.8126zm24.1723,12.0357c-4.8211,-0.618 -9.7453,-2.2915 -14.3806,-5.1004c-3.3203,-2.012 -6.1929,-4.4249 -8.577,-7.0977c3.9294,-0.6077 9.1725,-2.1603 15.0538,-4.4904c1.5372,1.4467 3.091,2.7972 4.6427,4.0437c1.8132,4.7373 3.7093,8.7261 5.5023,11.6077c-0.3002,0.1544 -0.6009,0.3028 -0.902,0.4451c-0.4462,0.2109 -0.8928,0.4083 -1.3392,0.592zm-25.6013,-11.9238c0.5701,2.5305 1.4899,4.8493 2.7517,6.8654c-2.133,-2.0803 -3.9762,-4.4564 -5.4631,-7.0621c0.7254,0.1776 1.6373,0.2411 2.7114,0.1967zm8.507,-15.0042c-3.1969,2.0706 -5.9366,4.0902 -8.0766,5.9445c0.3219,-4.239 1.4374,-8.7397 3.3817,-13.1934c1.2761,2.3443 2.8516,4.7852 4.6949,7.2489zm0.8659,-0.5549c-2.0183,-2.6916 -3.7072,-5.3492 -5.0267,-7.8716c0.5491,-1.1667 1.1556,-2.3283 1.82,-3.4792c2.258,-3.9109 4.958,-7.3035 7.8976,-10.0898c0.228,4.7312 1.0917,10.6785 2.5614,17.1823c-2.5929,1.4143 -5.0252,2.8457 -7.2523,4.2583zm17.5379,-15.1053c-4.0611,-3.237 -8.0869,-5.7359 -11.7284,-7.3564c-0.043,0.0378 -0.0859,0.0757 -0.1288,0.1137c0.0071,0.2185 0.0157,0.4403 0.0257,0.6654c0.2071,4.6228 1.0424,10.4802 2.4833,16.9176c1.3818,-0.7404 2.8064,-1.475 4.2673,-2.1984c2.3255,-1.1514 4.6175,-2.2126 6.8436,-3.1754c-0.574,-1.7303 -1.1639,-3.3902 -1.7627,-4.9665zm-5.5504,-11.7498c-1.8099,1.0073 -3.5942,2.2319 -5.3158,3.6578c3.1949,1.4704 6.645,3.5764 10.1376,6.2259c-1.0293,-2.5639 -2.0762,-4.8703 -3.106,-6.854c-0.5842,-1.1254 -1.1585,-2.1381 -1.7158,-3.0297zm20.2424,25.4065c3.1949,-2.0691 5.9333,-4.0874 8.0729,-5.9407c-0.322,4.2368 -1.4369,8.7351 -3.3798,13.1864c-1.2758,-2.3433 -2.8506,-4.7831 -4.6931,-7.2457zm-0.8659,0.5549c2.0175,2.6905 3.7058,5.347 5.025,7.8685c-0.5495,1.168 -1.1566,2.3309 -1.8218,3.4831c-2.257,3.9093 -4.9558,7.3008 -7.894,10.0864c-0.2283,-4.7309 -1.0919,-10.6773 -2.5614,-17.1801c2.5928,-1.4141 5.0251,-2.8454 7.2522,-4.2579zm-16.8092,16.9715c3.4919,2.649 6.9415,4.7547 10.1359,6.225c-1.7213,1.4259 -3.5052,2.6505 -5.3148,3.6578c-0.5571,-0.8913 -1.131,-1.9035 -1.715,-3.0285c-1.0298,-1.9837 -2.0767,-4.2902 -3.1061,-6.8543zm-0.7286,-1.8661c4.0605,3.2365 8.0855,5.735 11.7266,7.3555c0.0436,-0.0383 0.0871,-0.0767 0.1307,-0.1153c-0.0071,-0.2176 -0.0157,-0.4385 -0.0257,-0.6626c-0.2071,-4.6229 -1.0424,-10.4806 -2.4834,-16.9183c-1.381,0.74 -2.8048,1.474 -4.2648,2.197c-2.3264,1.1519 -4.6193,2.2135 -6.8463,3.1766c0.5741,1.7305 1.164,3.3906 1.7629,4.9671zm24.1438,-37.5479c1.2675,2.0199 2.191,4.3445 2.763,6.882c1.076,-0.0449 1.9896,0.0184 2.7161,0.196c-1.4906,-2.6123 -3.3393,-4.9939 -5.4791,-7.078zm-14.097,25.662c2.4521,-1.3439 4.754,-2.7006 6.8673,-4.0386c-1.8869,-2.4415 -4.0403,-4.9025 -6.4307,-7.3079c-0.4978,-0.5009 -0.9981,-0.9916 -1.5003,-1.4718c-0.7376,0.2968 -1.4852,0.6058 -2.2414,0.9267c0.7478,2.3078 1.4654,4.7302 2.1372,7.2374c0.4217,1.5741 0.8112,3.1282 1.1679,4.6542zm-4.2518,-11.4857c-2.1811,0.9452 -4.4278,1.9862 -6.709,3.1157c-1.5396,0.7624 -3.0375,1.5366 -4.4862,2.3166c0.3713,1.6025 0.7794,3.2383 1.224,4.8973c0.6589,2.4591 1.3615,4.8339 2.0928,7.0959c2.1819,-0.9454 4.4295,-1.9868 6.7116,-3.1168c1.5387,-0.7619 3.0358,-1.5357 4.4837,-2.3152c-0.3713,-1.6023 -0.7793,-3.2378 -1.2238,-4.8965c-0.659,-2.4595 -1.3618,-4.8346 -2.0931,-7.097zm0.6257,-1.3839c0.5856,-0.2481 1.1663,-0.4891 1.7414,-0.723c-0.9556,-0.8888 -1.9164,-1.7392 -2.8777,-2.5493c0.3843,1.0595 0.7637,2.1515 1.1363,3.2723zm-12.7559,7.324c-2.4521,1.344 -4.7541,2.7008 -6.8674,4.0389c1.8869,2.4415 4.0404,4.9025 6.4308,7.3079c0.4977,0.5008 0.9978,0.9913 1.4998,1.4714c0.7378,-0.2969 1.4855,-0.6059 2.2418,-0.9268c-0.7477,-2.3075 -1.4651,-4.7296 -2.1368,-7.2364c-0.4219,-1.5744 -0.8114,-3.1288 -1.1682,-4.655zm3.626,12.8694c-0.5858,0.2481 -1.1666,0.4892 -1.7418,0.7231c0.9558,0.889 1.9168,1.7396 2.8784,2.5498c-0.3845,-1.0597 -0.7639,-2.1519 -1.1366,-3.2729zm27.8749,13.2229c5.9701,-5.9673 9.663,-14.2127 9.663,-23.3207c0,-18.2102 -14.7624,-32.9726 -32.9726,-32.9726c-18.2103,0 -32.9726,14.7624 -32.9726,32.9726c0,18.2103 14.7623,32.9726 32.9726,32.9726c9.0329,0 17.2174,-3.6322 23.1727,-9.5158c0.0232,-0.0223 0.0462,-0.0448 0.0691,-0.0675c0.0228,-0.0227 0.0454,-0.0455 0.0678,-0.0686z" clip-rule="evenodd" fill-rule="evenodd"/>
   <path id="svg_4" fill="white" d="m92,44.99995c0,24.8529 -20.1472,45 -45,45c-24.8528,0 -45,-20.1471 -45,-45c0,-24.8528 20.1472,-44.99995 45,-44.99995c24.8528,0 45,20.14715 45,44.99995zm-81,0c0,19.8823 16.1177,36 36,36c19.8822,0 36,-16.1177 36,-36c0,-19.8822 -16.1178,-36 -36,-36c-19.8823,0 -36,16.1178 -36,36z"/>
   <path id="svg_5" fill="white" d="m94,82.01575l0,-13.4838c0,-0.1882 -0.0923,-0.3687 -0.2565,-0.5018c-0.1643,-0.1331 -0.387,-0.2079 -0.6193,-0.2079l-92.24842,0c-0.23227,0 -0.45503,0.0748 -0.61927,0.2079c-0.16424,0.1331 -0.25651,0.3136 -0.25651,0.5018l0,13.4838l8.7578,0l77.2142,0l8.028,0z"/>
   <path id="svg_6" fill="white" d="m94,82.01575l-8.028,0l0,2.0534c-0.0003,0.1206 0.0374,0.2393 0.1094,0.3448c0.072,0.1055 0.1761,0.1945 0.3023,0.2584c0.1262,0.0639 0.2704,0.1007 0.419,0.1069c0.1487,0.0062 0.2968,-0.0184 0.4305,-0.0714l6.7668,-2.6921z"/>
   <path id="svg_7" fill="white" d="m8.7578,82.01575l-8.7578,0l7.5229,2.7441c0.1335,0.0486 0.2798,0.0694 0.4257,0.0604c0.1459,-0.0091 0.2867,-0.0476 0.4095,-0.112c0.1228,-0.0645 0.2237,-0.1529 0.2936,-0.2571c0.0698,-0.1042 0.1062,-0.2209 0.1061,-0.3394l0,-2.096z"/>
   <path id="svg_8" stroke-width="0.58379" stroke="#239766" d="m94,82.01575l0,-13.4838c0,-0.1882 -0.0923,-0.3687 -0.2565,-0.5018c-0.1643,-0.1331 -0.387,-0.2079 -0.6193,-0.2079l-92.24842,0c-0.23227,0 -0.45503,0.0748 -0.61927,0.2079c-0.16424,0.1331 -0.25651,0.3136 -0.25651,0.5018l0,13.4838m94,0l-94,0m94,0l-6.7668,2.6921c-0.1337,0.053 -0.2818,0.0776 -0.4305,0.0714c-0.1486,-0.0062 -0.2928,-0.043 -0.419,-0.1069c-0.1262,-0.0639 -0.2303,-0.1529 -0.3023,-0.2584c-0.072,-0.1055 -0.1097,-0.2242 -0.1094,-0.3448l0,-2.0534m8.028,0l-8.028,0m-85.972,0l8.7578,0m-8.7578,0l7.5229,2.7441c0.1335,0.0486 0.2798,0.0694 0.4257,0.0604c0.1459,-0.0091 0.2867,-0.0476 0.4095,-0.112c0.1228,-0.0645 0.2237,-0.1529 0.2936,-0.2571c0.0698,-0.1042 0.1062,-0.2209 0.1061,-0.3394l0,-2.096m77.2142,0l-77.2142,0"/>
   <path id="svg_9" fill="#239766" d="m10.3437,28.62845l0.2754,-0.634l1.2166,0.5285c0.0521,0.2161 0.0644,0.4455 0.0371,0.6882c-0.0274,0.2427 -0.0882,0.4726 -0.1825,0.6896c-0.1352,0.3113 -0.3224,0.5626 -0.5617,0.754c-0.2422,0.1902 -0.5114,0.3058 -0.8076,0.3468c-0.2978,0.037 -0.5952,-0.009 -0.8922,-0.138c-0.297,-0.1291 -0.5322,-0.3144 -0.7055,-0.556c-0.175,-0.2458 -0.2736,-0.5229 -0.2958,-0.8312c-0.0251,-0.3096 0.0306,-0.6215 0.1671,-0.9356c0.1141,-0.2628 0.2619,-0.482 0.4435,-0.6577c0.1816,-0.1757 0.3882,-0.2998 0.62,-0.3723l0.2177,0.6242c-0.3186,0.1161 -0.5437,0.3256 -0.6752,0.6283c-0.0831,0.1913 -0.1169,0.3786 -0.1015,0.5618c0.0155,0.1833 0.078,0.3479 0.1877,0.494c0.1097,0.1461 0.2587,0.2601 0.4472,0.3419c0.1856,0.0807 0.3692,0.1112 0.5509,0.0917c0.1816,-0.0196 0.3454,-0.0842 0.4915,-0.1939c0.1445,-0.1137 0.2577,-0.2648 0.3395,-0.4533c0.0869,-0.1999 0.1222,-0.3984 0.106,-0.5956l-0.8782,-0.3814z"/>
   <path id="svg_10" fill="#239766" d="m10.4876,24.85515l0.3859,-0.6507l2.2813,1.3529l0.836,-1.4098l0.5302,0.3144l-1.2219,2.0605l-2.8115,-1.6673z"/>
   <path id="svg_11" fill="#239766" d="m16.7255,21.53465c-0.2107,0.2661 -0.4584,0.4611 -0.7432,0.5851c-0.2829,0.1216 -0.5727,0.1641 -0.8695,0.1277c-0.2973,-0.0408 -0.5717,-0.1608 -0.8231,-0.3598c-0.2515,-0.1991 -0.4299,-0.4377 -0.5354,-0.7158c-0.1059,-0.2824 -0.1322,-0.5753 -0.0788,-0.8785c0.0553,-0.3056 0.1883,-0.5915 0.399,-0.8576c0.2107,-0.266 0.4574,-0.4599 0.7403,-0.5814c0.2829,-0.1215 0.5739,-0.1631 0.8732,-0.1248c0.2968,0.0365 0.5709,0.1542 0.8223,0.3533c0.2515,0.199 0.4302,0.4398 0.5361,0.7223c0.1036,0.2805 0.1286,0.5724 0.0752,0.8756c-0.0534,0.3032 -0.1854,0.5879 -0.3961,0.8539zm-0.5053,-0.4c0.1198,-0.1514 0.1939,-0.3151 0.2222,-0.4913c0.0258,-0.1781 0.0036,-0.3506 -0.0668,-0.5175c-0.0685,-0.1694 -0.182,-0.3169 -0.3407,-0.4425c-0.1587,-0.1256 -0.3283,-0.2023 -0.5088,-0.2301c-0.1786,-0.0302 -0.3504,-0.0114 -0.5154,0.0566c-0.1674,0.066 -0.3111,0.1746 -0.4309,0.326c-0.1198,0.1513 -0.1927,0.3161 -0.2185,0.4942c-0.0283,0.1761 -0.0082,0.3489 0.0602,0.5183c0.0704,0.1669 0.1849,0.3131 0.3436,0.4388c0.1587,0.1256 0.3273,0.2035 0.5059,0.2337c0.1806,0.0278 0.3546,0.0087 0.522,-0.0573c0.165,-0.0679 0.3074,-0.1776 0.4272,-0.3289z"/>
   <path id="svg_12" fill="#239766" d="m19.9137,15.52405c0.1771,-0.0857 0.3527,-0.114 0.5267,-0.0847c0.1718,0.0269 0.3275,0.1143 0.4671,0.262c0.1977,0.2091 0.2684,0.4478 0.2122,0.7162c-0.0561,0.2639 -0.2399,0.543 -0.5513,0.8373l-1.2341,1.1665l-2.2558,-2.3865l1.166,-1.1021c0.2909,-0.275 0.5663,-0.4298 0.8261,-0.4645c0.2621,-0.0369 0.4834,0.0401 0.6639,0.231c0.1095,0.116 0.1789,0.2462 0.208,0.3909c0.0314,0.1424 0.0217,0.2871 -0.0288,0.4339zm-1.8932,0.4079l0.5318,0.5626l0.5489,-0.5189c0.1363,-0.1289 0.2172,-0.2505 0.2425,-0.3648c0.0254,-0.1143 -0.006,-0.2181 -0.0941,-0.3113c-0.0881,-0.0932 -0.1888,-0.1292 -0.3022,-0.1081c-0.1156,0.0189 -0.2416,0.0928 -0.378,0.2217l-0.5489,0.5188zm2.1139,0.9456c0.1454,-0.1375 0.232,-0.2645 0.2596,-0.3809c0.0299,-0.1187 -0.0024,-0.228 -0.097,-0.328c-0.1869,-0.1977 -0.4269,-0.158 -0.7201,0.1191l-0.6444,0.6091l0.5575,0.5898l0.6444,-0.6091z"/>
   <path id="svg_13" fill="#239766" d="m24.6456,13.11825l-1.2295,0.8804l0.1718,0.7353l-0.628,0.4497l-0.7159,-3.4932l0.6053,-0.4334l3.0802,1.8002l-0.6431,0.4605l-0.6408,-0.3995zm-0.5262,-0.3272l-1.1458,-0.7131l0.306,1.3145l0.8398,-0.6014z"/>
   <path id="svg_14" fill="#239766" d="m26.1438,9.09655l0.665,-0.3609l1.2654,2.3315l1.4407,-0.782l0.2941,0.5419l-2.1057,1.1428l-1.5595,-2.8733z"/>
   <path id="svg_15" fill="#239766" d="m41.7415,7.24035c-0.2561,0.0347 -0.509,0.0345 -0.7589,-0.0008c-0.2472,-0.0388 -0.4508,-0.1038 -0.6109,-0.1953l0.178,-0.5991c0.1527,0.083 0.3288,0.1424 0.5285,0.1782c0.1996,0.0358 0.3951,0.0407 0.5864,0.0147c0.2129,-0.0288 0.366,-0.081 0.4595,-0.1565c0.093,-0.0786 0.1324,-0.1703 0.1182,-0.2752c-0.0104,-0.0772 -0.0499,-0.1362 -0.1183,-0.1772c-0.0657,-0.0445 -0.1485,-0.0757 -0.2483,-0.0936c-0.0968,-0.0183 -0.2278,-0.0351 -0.3933,-0.0504c-0.2548,-0.0252 -0.4648,-0.0564 -0.6301,-0.0937c-0.1653,-0.0373 -0.3138,-0.113 -0.4455,-0.2271c-0.1287,-0.1145 -0.2076,-0.2798 -0.2369,-0.49573c-0.0255,-0.1882 0.0024,-0.3648 0.0837,-0.52978c0.0809,-0.16807 0.2171,-0.31064 0.4086,-0.42772c0.1946,-0.1175 0.44,-0.19632 0.7362,-0.23647c0.2067,-0.02803 0.4121,-0.03074 0.6163,-0.00814c0.2041,0.0226 0.3865,0.07014 0.5472,0.14262l-0.1543,0.60061c-0.3222,-0.12912 -0.633,-0.1734 -0.9323,-0.13283c-0.2098,0.02844 -0.361,0.0835 -0.4536,0.16518c-0.0896,0.08126 -0.1268,0.17743 -0.1117,0.2885c0.015,0.11107 0.0834,0.18666 0.2051,0.22666c0.1243,0.0366 0.3089,0.065 0.5535,0.0852c0.2548,0.0252 0.4648,0.0564 0.6301,0.0937c0.1653,0.0373 0.3121,0.1117 0.4403,0.2231c0.1313,0.111 0.2116,0.2745 0.2409,0.4905c0.0251,0.1851 -0.0044,0.3619 -0.0884,0.5304c-0.0813,0.165 -0.2192,0.3062 -0.4138,0.4237c-0.1946,0.1175 -0.44,0.1964 -0.7362,0.2365z"/>
   <path id="svg_16" fill="#239766" d="m47.8774,6.21405l0.0061,0.6071l-2.5313,0.0253l-0.0327,-3.2692l2.4706,-0.02471l0.0061,0.60714l-1.7187,0.01719l0.0071,0.70989l1.5178,-0.01518l0.0059,0.58847l-1.5178,0.0152l0.0075,0.7566l1.7794,-0.0178z"/>
   <path id="svg_17" fill="#239766" d="m51.7522,7.18475c-0.3368,-0.042 -0.6321,-0.1525 -0.8859,-0.3316c-0.2507,-0.1787 -0.4375,-0.4043 -0.5604,-0.6769c-0.1195,-0.2753 -0.1594,-0.5721 -0.1197,-0.8903c0.0396,-0.31826 0.1509,-0.59463 0.3338,-0.82912c0.1865,-0.2372 0.4231,-0.41167 0.71,-0.5234c0.29,-0.11135 0.6034,-0.14605 0.9401,-0.1041c0.3368,0.04194 0.6306,0.15226 0.8813,0.33096c0.2507,0.1787 0.4373,0.40589 0.5599,0.68157c0.1229,0.27259 0.1645,0.56799 0.1249,0.88629c-0.0396,0.3182 -0.1527,0.5959 -0.3391,0.8331c-0.186,0.2341 -0.4225,0.407 -0.7094,0.5188c-0.2869,0.1117 -0.5987,0.1466 -0.9355,0.1047zm0.0797,-0.6396c0.1915,0.0239 0.3699,0.0021 0.5352,-0.0651c0.1656,-0.0704 0.3015,-0.179 0.4077,-0.3258c0.1092,-0.1464 0.1763,-0.32 0.2013,-0.5208c0.025,-0.2008 0.0026,-0.3856 -0.0674,-0.55436c-0.0669,-0.16835 -0.1722,-0.3054 -0.3159,-0.41115c-0.1433,-0.10884 -0.3108,-0.17519 -0.5023,-0.19905c-0.1916,-0.02386 -0.3702,-0.00061 -0.5358,0.06974c-0.1653,0.06727 -0.3025,0.17411 -0.4117,0.32053c-0.1062,0.14679 -0.1718,0.32059 -0.1968,0.52139c-0.025,0.2009 -0.0041,0.3855 0.0628,0.5538c0.07,0.1687 0.1766,0.3075 0.32,0.4164c0.1437,0.1057 0.3113,0.1705 0.5029,0.1944z"/>
   <path id="svg_18" fill="#239766" d="m66.7013,11.41415l-1.3279,-0.7352l-0.5926,0.4727l-0.6783,-0.3755l2.8583,-2.1544l0.6537,0.3619l-0.3045,3.5682l-0.6946,-0.3845l0.0859,-0.7532zm0.0699,-0.6179l0.1527,-1.3461l-1.0598,0.8439l0.9071,0.5022z"/>
   <path id="svg_19" fill="#239766" d="m71.7589,13.64205l0.5529,0.4148l-0.7958,1.0611c-0.2223,0.0006 -0.4483,-0.0405 -0.6781,-0.1233c-0.2298,-0.0829 -0.4393,-0.1953 -0.6286,-0.3372c-0.2715,-0.2037 -0.4727,-0.444 -0.6034,-0.7211c-0.1289,-0.2796 -0.1791,-0.5683 -0.1504,-0.8659c0.033,-0.2983 0.1466,-0.5769 0.3409,-0.836c0.1943,-0.259 0.429,-0.4449 0.7043,-0.5576c0.2796,-0.1134 0.5719,-0.1451 0.8771,-0.0953c0.307,0.0473 0.5975,0.1737 0.8714,0.3792c0.2292,0.1719 0.4082,0.3665 0.5371,0.5838c0.1289,0.2173 0.2018,0.4471 0.2186,0.6894l-0.6576,0.0672c-0.0392,-0.3369 -0.1908,-0.6043 -0.4549,-0.8024c-0.1668,-0.1251 -0.3412,-0.2014 -0.523,-0.2288c-0.1819,-0.0274 -0.3565,-0.0047 -0.524,0.0682c-0.1676,0.0728 -0.313,0.1915 -0.4363,0.3559c-0.1214,0.1619 -0.1936,0.3334 -0.2167,0.5146c-0.023,0.1812 0.0019,0.3556 0.0748,0.5231c0.0772,0.1669 0.198,0.312 0.3624,0.4353c0.1743,0.1308 0.3593,0.2111 0.5548,0.241l0.5745,-0.766z"/>
   <path id="svg_20" fill="#239766" d="m75.3352,18.34485l-0.425,0.4311l-1.7972,-1.772l2.2884,-2.3211l1.7542,1.7294l-0.425,0.4311l-1.2203,-1.2031l-0.4969,0.504l1.0777,1.0625l-0.412,0.4178l-1.0776,-1.0625l-0.5296,0.5372l1.2633,1.2456z"/>
   <path id="svg_21" fill="#239766" d="m80.9128,20.84225l-2.5758,2.0132l-0.3825,-0.4894l0.5601,-2.5065l-1.5638,1.2223l-0.4602,-0.5888l2.5758,-2.0132l0.3854,0.4931l-0.5631,2.5029l1.5639,-1.2223l0.4602,0.5887z"/>
   <path id="svg_22" fill="#239766" d="m80.462,26.30395c-0.1675,-0.288 -0.2575,-0.5851 -0.2699,-0.8912c-0.0082,-0.3051 0.059,-0.5891 0.2014,-0.852c0.1466,-0.2618 0.3599,-0.4742 0.6398,-0.637c0.2798,-0.1628 0.5685,-0.2425 0.8659,-0.239c0.3017,0.0046 0.5817,0.0866 0.8402,0.246c0.2627,0.1606 0.4786,0.3862 0.6477,0.6768c0.1424,0.2449 0.2278,0.4907 0.2559,0.7372c0.0298,0.2493 0.0031,0.4882 -0.0801,0.7167l-0.6318,-0.1944c0.1095,-0.3195 0.0821,-0.6205 -0.0823,-0.9031c-0.1018,-0.1749 -0.2317,-0.3083 -0.3895,-0.4001c-0.1553,-0.0934 -0.3242,-0.1393 -0.5068,-0.1374c-0.1811,0.0045 -0.3591,0.0576 -0.5341,0.1594c-0.1749,0.1017 -0.3091,0.2302 -0.4025,0.3854c-0.0918,0.1579 -0.1369,0.3282 -0.1351,0.5109c0.0045,0.181 0.0577,0.3591 0.1594,0.534c0.1644,0.2826 0.4139,0.4544 0.7485,0.5155l-0.1433,0.6453c-0.2425,-0.039 -0.4647,-0.1331 -0.6667,-0.2821c-0.202,-0.1491 -0.3742,-0.346 -0.5167,-0.5909z"/>
   <path id="svg_23" fill="#239766" d="m83.8219,30.42115l-1.0681,0.4481l-0.2927,-0.6977l1.0767,-0.4517l1.4483,-1.9802l0.3108,0.7408l-1.0015,1.3672l1.6772,0.2435l0.2873,0.6847l-2.438,-0.3547z"/>
   <path id="svg_24" fill="#239766" d="m39.0037,74.77445l2.1799,0l0,4.1831c-0.5597,0.4222 -1.2078,0.7463 -1.9443,0.9721c-0.7364,0.2259 -1.4778,0.3388 -2.2241,0.3388c-1.0703,0 -2.0326,-0.2259 -2.8869,-0.6775c-0.8543,-0.4616 -1.5269,-1.0949 -2.0179,-1.9001c-0.4812,-0.815 -0.7217,-1.7332 -0.7217,-2.7544c0,-1.0212 0.2405,-1.9344 0.7217,-2.7396c0.491,-0.815 1.1685,-1.4484 2.0326,-1.9001c0.8642,-0.4615 1.8363,-0.6923 2.9164,-0.6923c0.9034,0 1.7233,0.1522 2.4598,0.4566c0.7365,0.3045 1.3551,0.7463 1.8559,1.3257l-1.5319,1.414c-0.7364,-0.7758 -1.6251,-1.1636 -2.6659,-1.1636c-0.6579,0 -1.2422,0.1374 -1.7528,0.4124c-0.5106,0.2749 -0.9083,0.6628 -1.1931,1.1636c-0.2848,0.5008 -0.4271,1.0752 -0.4271,1.7233c0,0.6383 0.1423,1.2078 0.4271,1.7086c0.2848,0.5008 0.6776,0.8936 1.1783,1.1783c0.5107,0.275 1.09,0.4125 1.7381,0.4125c0.6874,0 1.306,-0.1473 1.8559,-0.4419l0,-3.0195z"/>
   <path id="svg_25" fill="#239766" d="m46.7878,80.26845c-0.815,0 -1.6054,-0.108 -2.3714,-0.324c-0.7561,-0.2259 -1.3649,-0.5156 -1.8264,-0.8691l0.8101,-1.7969c0.4419,0.324 0.9672,0.5842 1.576,0.7806c0.6089,0.1964 1.2177,0.2946 1.8265,0.2946c0.6775,0 1.1783,-0.0982 1.5023,-0.2946c0.3241,-0.2062 0.4861,-0.4762 0.4861,-0.8101c0,-0.2455 -0.0982,-0.4468 -0.2946,-0.6039c-0.1865,-0.1669 -0.432,-0.2995 -0.7364,-0.3977c-0.2946,-0.0982 -0.6972,-0.2062 -1.2078,-0.324c-0.7856,-0.1866 -1.4288,-0.3732 -1.9296,-0.5597c-0.5007,-0.1866 -0.9328,-0.4861 -1.2961,-0.8985c-0.3535,-0.4124 -0.5303,-0.9623 -0.5303,-1.6497c0,-0.599 0.162,-1.139 0.4861,-1.6202c0.324,-0.491 0.8101,-0.8788 1.4582,-1.1636c0.6579,-0.2848 1.4582,-0.4272 2.4008,-0.4272c0.6579,0 1.3011,0.0786 1.9296,0.2357c0.6284,0.1571 1.1783,0.383 1.6496,0.6776l-0.7364,1.8116c-0.9525,-0.54 -1.905,-0.8101 -2.8575,-0.8101c-0.6677,0 -1.1636,0.1081 -1.4876,0.3241c-0.3143,0.216 -0.4714,0.5008 -0.4714,0.8543c0,0.3535 0.1817,0.6186 0.545,0.7954c0.3731,0.1669 0.9378,0.3338 1.6939,0.5007c0.7855,0.1866 1.4287,0.3732 1.9295,0.5598c0.5008,0.1865 0.9279,0.4811 1.2814,0.8837c0.3634,0.4026 0.545,0.9476 0.545,1.635c0,0.5891 -0.1669,1.1292 -0.5008,1.6202c-0.324,0.4811 -0.815,0.8641 -1.4729,1.1489c-0.6579,0.2847 -1.4582,0.4271 -2.4009,0.4271z"/>
   <path id="svg_26" fill="#239766" d="m59.583,77.88235l-4.787,0l-0.9132,2.2093l-2.445,0l4.5955,-10.3104l2.3567,0l4.6102,10.3104l-2.5039,0l-0.9133,-2.2093zm-0.7511,-1.8117l-1.635,-3.9475l-1.6349,3.9475l3.2699,0z"/>
  </g>
 </g>
</svg>